<svg xmlns="http://www.w3.org/2000/svg" width="100" height="95" viewBox="0 0 100 95" fill="none">
    <path d="M61.8437 60.2974L21.731 60.2122C20.426 60.2094 19.3708 61.2646 19.368 62.5696C19.3653 63.8702 20.4159 64.9298 21.721 64.9326L61.8337 65.0177C63.1343 65.0205 64.1939 63.9654 64.1966 62.6648C64.1994 61.3597 63.1443 60.3001 61.8437 60.2974Z" fill="#1560BD"/>
    <path d="M17.0138 62.5647C17.0071 65.7101 12.291 65.7001 12.2977 62.5547C12.3044 59.4093 17.0205 59.4193 17.0138 62.5647Z" fill="#1560BD"/>
    <path d="M61.8241 69.7383L21.7115 69.6531C20.4064 69.6504 19.3513 70.7011 19.3485 72.0061C19.3457 73.3112 20.3964 74.3663 21.7015 74.3691L61.8141 74.4542C63.1148 74.457 64.1743 73.4063 64.1771 72.1013C64.1799 70.7962 63.1248 69.741 61.8241 69.7383Z" fill="#1560BD"/>
    <path d="M16.9903 72.0012C16.9837 75.1467 12.2676 75.1366 12.2743 71.9912C12.281 68.8458 16.997 68.8558 16.9903 72.0012Z" fill="#1560BD"/>
    <path d="M61.8046 79.1748L21.692 79.0897C20.3869 79.0869 19.3317 80.142 19.329 81.4426C19.3262 82.7477 20.3769 83.8072 21.6819 83.81L61.7946 83.8952C63.0952 83.8979 64.1548 82.8428 64.1576 81.5378C64.1603 80.2372 63.1052 79.1776 61.8046 79.1748Z" fill="#1560BD"/>
    <path d="M16.9689 81.4377C16.9622 84.5831 12.2461 84.5731 12.2528 81.4276C12.2595 78.2822 16.9755 78.2922 16.9689 81.4377Z" fill="#1560BD"/>
    <path d="M80.8478 0.170738C80.2107 0.169385 79.5824 0.203444 78.9629 0.264067C78.8082 0.215073 78.649 0.183766 78.4898 0.165732L7.70539 0.015478C3.79899 0.0116107 0.624636 3.17251 0.611927 7.07889L0.441632 87.3042C0.437764 91.2106 3.59866 94.3849 7.50504 94.3976L68.853 94.5279C72.7594 94.5317 75.9338 91.3708 75.9465 87.4645L76.053 37.2914C81.297 38.6607 86.8777 37.7125 91.3707 34.6784C95.863 31.6486 98.8374 26.8327 99.5301 21.4584C100.227 16.0802 98.5753 10.6662 95.0006 6.59303C91.4257 2.5198 86.2674 0.182242 80.8478 0.170738ZM71.2261 87.4544C71.2233 88.7551 70.1637 89.8102 68.8631 89.8074L7.51514 89.6772C6.21452 89.6744 5.15942 88.6148 5.16218 87.3142L5.33247 7.08891C5.33524 5.78829 6.39482 4.73319 7.69545 4.73595L68.3979 4.8648C63.8105 8.85434 61.4354 14.813 62.0198 20.8622C62.6042 26.9156 66.0745 32.3119 71.337 35.3481L71.2261 87.4544ZM80.7777 33.205C75.053 33.1928 69.8975 29.7311 67.7187 24.4398C65.54 19.144 66.7607 13.0545 70.8217 9.01532C74.8782 4.97595 80.9682 3.77671 86.2546 5.98226C91.5411 8.18339 94.9764 13.3535 94.9643 19.0784C94.9388 26.8955 88.5949 33.2125 80.7777 33.205Z" fill="#1560BD"/>
    <path d="M86.0102 12.923L78.9118 22.3444L75.1397 19.505L75.1397 19.5094C74.0973 18.7286 72.6236 18.9378 71.8383 19.9758C71.0575 21.0182 71.2623 22.4919 72.3047 23.2772L77.9584 27.5362C78.9964 28.3215 80.4745 28.1123 81.2598 27.0699L89.778 15.7624C90.5632 14.7244 90.354 13.2463 89.3116 12.461C88.2736 11.6758 86.7955 11.885 86.0102 12.923Z" fill="#1560BD"/>
    <path d="M19.402 51.9521C19.4007 52.5759 19.6472 53.1781 20.0886 53.6215C20.5301 54.0649 21.1313 54.3139 21.7551 54.3152L54.7893 54.3853C55.4131 54.3866 56.0153 54.1402 56.4587 53.6987C56.9021 53.2572 57.1511 52.6561 57.1524 52.0323C57.1555 48.4577 56.141 44.9561 54.2318 41.9348C52.3226 38.9091 49.5936 36.4922 46.363 34.9591C49.7488 32.2057 51.7085 28.0689 51.6913 23.7068C51.9109 16.1156 45.9564 9.77212 38.3652 9.52157C30.7775 9.73993 24.7912 16.0581 24.9835 23.6501C24.9477 28.0122 26.8855 32.1571 30.2596 34.9249C27.0268 36.4444 24.2877 38.8497 22.3657 41.8671C20.4437 44.8803 19.414 48.3775 19.402 51.9521ZM52.2419 49.6639L24.3223 49.6002C24.9269 46.1374 26.8093 43.0225 29.5878 40.8694C31.759 43.4267 34.9412 44.9022 38.2945 44.9138C41.6479 44.9209 44.8363 43.4588 47.0184 40.9108C49.7876 43.0756 51.648 46.194 52.2423 49.6593L52.2419 49.6639ZM38.3049 37.8353C39.7825 37.8473 41.2464 38.0982 42.6433 38.5701C40.1612 40.7415 36.4495 40.7336 33.9723 38.5472C35.3713 38.0857 36.8317 37.841 38.3049 37.8353ZM38.355 14.2376C42.8804 14.4419 46.5359 17.9977 46.8625 22.5154L45.2964 22.5121L43.7917 18.6069C43.4969 17.8497 42.8345 17.2954 42.0385 17.1432C41.2425 16.9867 40.419 17.2548 39.8647 17.8464L35.5282 22.4913L29.8167 22.4792C30.1581 17.963 33.8332 14.4227 38.355 14.2376ZM30.3376 27.2007L36.549 27.2139C37.2037 27.2153 37.8281 26.9423 38.2759 26.461L40.7413 23.8207L41.4717 25.7158L41.4761 25.7158C41.8281 26.6235 42.6983 27.227 43.6717 27.229L46.3216 27.2347C45.1464 30.6785 41.9516 33.0253 38.3149 33.1149C34.6786 33.0098 31.4939 30.6494 30.3376 27.2007Z" fill="#1560BD"/>
  </svg>