<svg xmlns="http://www.w3.org/2000/svg" width="115" height="131" viewBox="0 0 115 131" fill="none">
    <mask id="path-1-outside-1_1945_674" maskUnits="userSpaceOnUse" x="0" y="0" width="115" height="131" fill="black">
      <rect fill="white" width="115" height="131"/>
      <path d="M20.1468 129.166H61.584C71.5911 129.154 79.7077 121.058 79.7139 111.068V97.1909H100.059C103.593 97.3111 107.031 95.9949 109.584 93.5427C112.131 91.0844 113.57 87.7007 113.57 84.1666C113.57 80.6326 112.131 77.2488 109.584 74.7906C107.031 72.3383 103.593 71.0222 100.059 71.1424H79.7139V60.0234H100.059C103.593 60.1436 107.031 58.8273 109.584 56.3752C112.131 53.9169 113.57 50.5332 113.57 46.9991C113.57 43.465 112.131 40.0813 109.584 37.6231C107.031 35.1708 103.593 33.8547 100.059 33.9748H79.7139V20.0973C79.7079 10.1082 71.5915 2.01231 61.584 2H20.1468C10.1338 2.01202 2.01696 10.1018 2 20.0973V111.068C2.01806 121.063 10.1344 129.153 20.1468 129.166ZM110.704 84.1734C110.686 90.0334 105.923 94.7754 100.058 94.7874H45.1278C39.4139 94.5651 34.8981 89.8771 34.8981 84.1674C34.8981 78.4577 39.4139 73.7697 45.1278 73.5474H100.058C105.929 73.5594 110.692 78.3136 110.704 84.1734ZM110.704 46.994C110.667 52.836 105.911 57.5601 100.058 57.5721H45.1278C39.4139 57.3497 34.8981 52.6617 34.8981 46.952C34.8981 41.2424 39.4139 36.5543 45.1278 36.332H100.058C102.882 36.338 105.592 37.4619 107.591 39.4634C109.59 41.4589 110.704 44.1693 110.704 46.994ZM4.40765 20.0976C4.42572 11.4308 11.4643 4.41748 20.1468 4.40517H61.584C70.2664 4.41719 77.2985 11.4371 77.3047 20.0976V33.9751H45.1944C38.1678 34.2216 32.5983 39.9793 32.5983 46.9993C32.5983 54.0192 38.1678 59.777 45.1944 60.0234H77.3047V71.1484H45.1944V71.1424C38.1678 71.3888 32.5983 77.1465 32.5983 84.1665C32.5983 91.1864 38.1678 96.9443 45.1944 97.1906H77.3047V111.068C77.2987 119.729 70.2661 126.748 61.584 126.761H20.1468C11.4645 126.749 4.42615 119.735 4.40765 111.068V20.0976ZM17.2505 9.8742H17.2566C17.2566 9.20707 17.7924 8.67215 18.4608 8.67215C19.1231 8.67215 19.665 9.20707 19.665 9.8742C19.671 12.8793 22.1095 15.3135 25.1201 15.3195H56.6585C59.669 15.3135 62.1077 12.8794 62.1137 9.8742C62.1137 9.20707 62.6556 8.67215 63.3179 8.67215C63.9862 8.67215 64.5221 9.20707 64.5221 9.8742C64.5161 14.2076 60.9997 17.7176 56.6585 17.7236H25.0723C20.7312 17.7176 17.2148 14.2076 17.2088 9.8742H17.2505ZM26.8842 115.528L54.936 115.522C55.6044 115.522 56.1402 116.063 56.1402 116.724C56.1402 117.391 55.6044 117.926 54.936 117.926H26.7933C26.125 117.926 25.5891 117.391 25.5891 116.724C25.5891 116.063 26.125 115.522 26.7933 115.522L26.8842 115.528ZM45.8202 45.7918H99.3836C100.046 45.7918 100.588 46.3267 100.588 46.9938C100.588 47.6549 100.046 48.1959 99.3836 48.1959H45.8202C45.1519 48.1959 44.616 47.6549 44.616 46.9938C44.616 46.3267 45.1519 45.7918 45.8202 45.7918ZM41.3406 84.2573C41.3406 86.6194 42.7676 88.753 44.9594 89.6604C47.1451 90.568 49.6679 90.0631 51.3416 88.3923C53.0215 86.7215 53.5213 84.2031 52.6121 82.0155C51.7089 79.8277 49.5714 78.4032 47.1992 78.4032C43.996 78.4153 41.3889 80.9817 41.3407 84.1731L41.3406 84.2573ZM47.1992 80.8134V80.8074C48.6021 80.8074 49.8665 81.6608 50.3963 82.953C50.9262 84.2512 50.6131 85.7417 49.6075 86.7214C48.608 87.701 47.1088 87.9715 45.8204 87.4125C44.5318 86.8536 43.713 85.5734 43.749 84.173C43.749 82.2737 45.2904 80.7291 47.1991 80.7291L47.1992 80.8134ZM64.136 90.1113V90.1052C66.5083 90.0992 68.6398 88.6688 69.5429 86.481C70.44 84.2993 69.9403 81.781 68.2604 80.1102C66.5806 78.4454 64.0636 77.9466 61.8781 78.8541C59.6864 79.7556 58.2594 81.8893 58.2594 84.2572C58.3136 87.4546 60.9267 90.0271 64.1359 90.0271L64.136 90.1113ZM64.136 80.8134V80.8074C65.5329 80.8134 66.7853 81.6608 67.3151 82.947C67.8449 84.2332 67.5439 85.7177 66.5564 86.6973C65.569 87.677 64.0877 87.9715 62.7993 87.4366C61.5108 86.9017 60.6679 85.6455 60.6679 84.2572C60.6498 83.3256 61.005 82.4241 61.6553 81.7629C62.3116 81.0958 63.2027 80.7232 64.136 80.7292L64.136 80.8134ZM81.0604 90.1113V90.1052C83.4268 90.1113 85.5642 88.6989 86.4794 86.5232C87.3945 84.3475 86.9129 81.8352 85.2511 80.1524C83.5953 78.4694 81.0845 77.9466 78.8928 78.8241C76.7011 79.7076 75.2501 81.8172 75.214 84.1733C75.226 87.3948 77.8331 90.0093 81.0605 90.0273L81.0604 90.1113ZM81.0604 80.8134V80.8074C82.4573 80.8074 83.7158 81.6488 84.2516 82.935C84.7814 84.2272 84.4864 85.7057 83.499 86.6914C82.5115 87.677 81.0303 87.9715 79.7418 87.4366C78.4473 86.9077 77.6104 85.6515 77.6104 84.2572C77.5863 83.3256 77.9415 82.4301 78.5918 81.769C79.2421 81.1018 80.1332 80.7292 81.0605 80.7292L81.0604 80.8134ZM97.9849 90.1113V90.1052C100.351 90.1052 102.489 88.6808 103.398 86.493C104.307 84.3053 103.801 81.793 102.127 80.1162C100.454 78.4454 97.9307 77.9464 95.7391 78.848C93.5474 79.7556 92.1204 81.8893 92.1204 84.2572C92.1685 87.4546 94.7757 90.0271 97.9849 90.0271L97.9849 90.1113ZM97.9849 80.8134V80.8074C99.3818 80.8314 100.628 81.6909 101.146 82.9891C101.658 84.2873 101.339 85.7659 100.327 86.7395C99.3217 87.7072 97.8284 87.9716 96.546 87.4127C95.2635 86.8477 94.4506 85.5735 94.4808 84.1731C94.4808 83.2535 94.8541 82.37 95.5104 81.7208C96.1667 81.0717 97.0578 80.7171 97.9851 80.7291L97.9849 80.8134Z"/>
    </mask>
    <path d="M20.1468 129.166H61.584C71.5911 129.154 79.7077 121.058 79.7139 111.068V97.1909H100.059C103.593 97.3111 107.031 95.9949 109.584 93.5427C112.131 91.0844 113.57 87.7007 113.57 84.1666C113.57 80.6326 112.131 77.2488 109.584 74.7906C107.031 72.3383 103.593 71.0222 100.059 71.1424H79.7139V60.0234H100.059C103.593 60.1436 107.031 58.8273 109.584 56.3752C112.131 53.9169 113.57 50.5332 113.57 46.9991C113.57 43.465 112.131 40.0813 109.584 37.6231C107.031 35.1708 103.593 33.8547 100.059 33.9748H79.7139V20.0973C79.7079 10.1082 71.5915 2.01231 61.584 2H20.1468C10.1338 2.01202 2.01696 10.1018 2 20.0973V111.068C2.01806 121.063 10.1344 129.153 20.1468 129.166ZM110.704 84.1734C110.686 90.0334 105.923 94.7754 100.058 94.7874H45.1278C39.4139 94.5651 34.8981 89.8771 34.8981 84.1674C34.8981 78.4577 39.4139 73.7697 45.1278 73.5474H100.058C105.929 73.5594 110.692 78.3136 110.704 84.1734ZM110.704 46.994C110.667 52.836 105.911 57.5601 100.058 57.5721H45.1278C39.4139 57.3497 34.8981 52.6617 34.8981 46.952C34.8981 41.2424 39.4139 36.5543 45.1278 36.332H100.058C102.882 36.338 105.592 37.4619 107.591 39.4634C109.59 41.4589 110.704 44.1693 110.704 46.994ZM4.40765 20.0976C4.42572 11.4308 11.4643 4.41748 20.1468 4.40517H61.584C70.2664 4.41719 77.2985 11.4371 77.3047 20.0976V33.9751H45.1944C38.1678 34.2216 32.5983 39.9793 32.5983 46.9993C32.5983 54.0192 38.1678 59.777 45.1944 60.0234H77.3047V71.1484H45.1944V71.1424C38.1678 71.3888 32.5983 77.1465 32.5983 84.1665C32.5983 91.1864 38.1678 96.9443 45.1944 97.1906H77.3047V111.068C77.2987 119.729 70.2661 126.748 61.584 126.761H20.1468C11.4645 126.749 4.42615 119.735 4.40765 111.068V20.0976ZM17.2505 9.8742H17.2566C17.2566 9.20707 17.7924 8.67215 18.4608 8.67215C19.1231 8.67215 19.665 9.20707 19.665 9.8742C19.671 12.8793 22.1095 15.3135 25.1201 15.3195H56.6585C59.669 15.3135 62.1077 12.8794 62.1137 9.8742C62.1137 9.20707 62.6556 8.67215 63.3179 8.67215C63.9862 8.67215 64.5221 9.20707 64.5221 9.8742C64.5161 14.2076 60.9997 17.7176 56.6585 17.7236H25.0723C20.7312 17.7176 17.2148 14.2076 17.2088 9.8742H17.2505ZM26.8842 115.528L54.936 115.522C55.6044 115.522 56.1402 116.063 56.1402 116.724C56.1402 117.391 55.6044 117.926 54.936 117.926H26.7933C26.125 117.926 25.5891 117.391 25.5891 116.724C25.5891 116.063 26.125 115.522 26.7933 115.522L26.8842 115.528ZM45.8202 45.7918H99.3836C100.046 45.7918 100.588 46.3267 100.588 46.9938C100.588 47.6549 100.046 48.1959 99.3836 48.1959H45.8202C45.1519 48.1959 44.616 47.6549 44.616 46.9938C44.616 46.3267 45.1519 45.7918 45.8202 45.7918ZM41.3406 84.2573C41.3406 86.6194 42.7676 88.753 44.9594 89.6604C47.1451 90.568 49.6679 90.0631 51.3416 88.3923C53.0215 86.7215 53.5213 84.2031 52.6121 82.0155C51.7089 79.8277 49.5714 78.4032 47.1992 78.4032C43.996 78.4153 41.3889 80.9817 41.3407 84.1731L41.3406 84.2573ZM47.1992 80.8134V80.8074C48.6021 80.8074 49.8665 81.6608 50.3963 82.953C50.9262 84.2512 50.6131 85.7417 49.6075 86.7214C48.608 87.701 47.1088 87.9715 45.8204 87.4125C44.5318 86.8536 43.713 85.5734 43.749 84.173C43.749 82.2737 45.2904 80.7291 47.1991 80.7291L47.1992 80.8134ZM64.136 90.1113V90.1052C66.5083 90.0992 68.6398 88.6688 69.5429 86.481C70.44 84.2993 69.9403 81.781 68.2604 80.1102C66.5806 78.4454 64.0636 77.9466 61.8781 78.8541C59.6864 79.7556 58.2594 81.8893 58.2594 84.2572C58.3136 87.4546 60.9267 90.0271 64.1359 90.0271L64.136 90.1113ZM64.136 80.8134V80.8074C65.5329 80.8134 66.7853 81.6608 67.3151 82.947C67.8449 84.2332 67.5439 85.7177 66.5564 86.6973C65.569 87.677 64.0877 87.9715 62.7993 87.4366C61.5108 86.9017 60.6679 85.6455 60.6679 84.2572C60.6498 83.3256 61.005 82.4241 61.6553 81.7629C62.3116 81.0958 63.2027 80.7232 64.136 80.7292L64.136 80.8134ZM81.0604 90.1113V90.1052C83.4268 90.1113 85.5642 88.6989 86.4794 86.5232C87.3945 84.3475 86.9129 81.8352 85.2511 80.1524C83.5953 78.4694 81.0845 77.9466 78.8928 78.8241C76.7011 79.7076 75.2501 81.8172 75.214 84.1733C75.226 87.3948 77.8331 90.0093 81.0605 90.0273L81.0604 90.1113ZM81.0604 80.8134V80.8074C82.4573 80.8074 83.7158 81.6488 84.2516 82.935C84.7814 84.2272 84.4864 85.7057 83.499 86.6914C82.5115 87.677 81.0303 87.9715 79.7418 87.4366C78.4473 86.9077 77.6104 85.6515 77.6104 84.2572C77.5863 83.3256 77.9415 82.4301 78.5918 81.769C79.2421 81.1018 80.1332 80.7292 81.0605 80.7292L81.0604 80.8134ZM97.9849 90.1113V90.1052C100.351 90.1052 102.489 88.6808 103.398 86.493C104.307 84.3053 103.801 81.793 102.127 80.1162C100.454 78.4454 97.9307 77.9464 95.7391 78.848C93.5474 79.7556 92.1204 81.8893 92.1204 84.2572C92.1685 87.4546 94.7757 90.0271 97.9849 90.0271L97.9849 90.1113ZM97.9849 80.8134V80.8074C99.3818 80.8314 100.628 81.6909 101.146 82.9891C101.658 84.2873 101.339 85.7659 100.327 86.7395C99.3217 87.7072 97.8284 87.9716 96.546 87.4127C95.2635 86.8477 94.4506 85.5735 94.4808 84.1731C94.4808 83.2535 94.8541 82.37 95.5104 81.7208C96.1667 81.0717 97.0578 80.7171 97.9851 80.7291L97.9849 80.8134Z" fill="white"/>
    <path d="M110.704 46.988H110.104V46.994H110.704H111.303V46.988H110.704ZM20.1468 129.166L20.1453 130.365H20.1468V129.166ZM61.584 129.166V130.365H61.5855L61.584 129.166ZM79.7139 111.068L80.9136 111.069V111.068H79.7139ZM79.7139 97.1909V95.9912H78.5142V97.1909H79.7139ZM100.059 97.1909L100.099 95.9919L100.079 95.9912H100.059V97.1909ZM109.584 93.5427L110.415 94.4079L110.417 94.4059L109.584 93.5427ZM109.584 74.7906L110.417 73.9274L110.415 73.9254L109.584 74.7906ZM100.059 71.1424V72.342H100.079L100.099 72.3414L100.059 71.1424ZM79.7139 71.1424H78.5142V72.342H79.7139V71.1424ZM79.7139 60.0234V58.8237H78.5142V60.0234H79.7139ZM100.059 60.0234L100.099 58.8244L100.079 58.8237H100.059V60.0234ZM109.584 56.3752L110.415 57.2404L110.417 57.2383L109.584 56.3752ZM109.584 37.6231L110.417 36.7599L110.415 36.7579L109.584 37.6231ZM100.059 33.9748V35.1745H100.079L100.099 35.1738L100.059 33.9748ZM79.7139 33.9748H78.5142V35.1745H79.7139V33.9748ZM79.7139 20.0973H80.9136V20.0965L79.7139 20.0973ZM61.584 2L61.5855 0.800323H61.584V2ZM20.1468 2V0.800322L20.1454 0.800324L20.1468 2ZM2 20.0973L0.800323 20.0952V20.0973H2ZM2 111.068H0.800321L0.800325 111.07L2 111.068ZM110.704 84.1734L111.903 84.1771L111.903 84.171L110.704 84.1734ZM100.058 94.7874V95.9871H100.061L100.058 94.7874ZM45.1278 94.7874L45.0812 95.9862L45.1045 95.9871H45.1278V94.7874ZM45.1278 73.5474V72.3477H45.1045L45.0812 72.3486L45.1278 73.5474ZM100.058 73.5474L100.061 72.3477H100.058V73.5474ZM110.704 46.994L111.903 47.0015V46.994H110.704ZM100.058 57.5721V58.7717L100.061 58.7717L100.058 57.5721ZM45.1278 57.5721L45.0812 58.7708L45.1045 58.7717H45.1278V57.5721ZM45.1278 36.332V35.1323H45.1045L45.0812 35.1332L45.1278 36.332ZM100.058 36.332L100.061 35.1323H100.058V36.332ZM107.591 39.4634L106.742 40.3112L106.743 40.3125L107.591 39.4634ZM4.40765 20.0976L3.20798 20.0951V20.0976H4.40765ZM20.1468 4.40517V3.20549L20.1451 3.2055L20.1468 4.40517ZM61.584 4.40517L61.5857 3.20549H61.584V4.40517ZM77.3047 20.0976H78.5044V20.0967L77.3047 20.0976ZM77.3047 33.9751V35.1748H78.5044V33.9751H77.3047ZM45.1944 33.9751V32.7755H45.1734L45.1524 32.7762L45.1944 33.9751ZM45.1944 60.0234L45.1524 61.2223L45.1734 61.2231H45.1944V60.0234ZM77.3047 60.0234H78.5044V58.8237H77.3047V60.0234ZM77.3047 71.1484V72.348H78.5044V71.1484H77.3047ZM45.1944 71.1484H43.9947V72.348H45.1944V71.1484ZM45.1944 71.1424H46.3941V69.8999L45.1524 69.9434L45.1944 71.1424ZM45.1944 97.1906L45.1524 98.3895L45.1734 98.3903H45.1944V97.1906ZM77.3047 97.1906H78.5044V95.9909H77.3047V97.1906ZM77.3047 111.068L78.5044 111.069V111.068H77.3047ZM61.584 126.761V127.96L61.5857 127.96L61.584 126.761ZM20.1468 126.761L20.1451 127.96H20.1468V126.761ZM4.40765 111.068H3.20797L3.20798 111.071L4.40765 111.068ZM17.2566 9.8742V11.0739H18.4562V9.8742H17.2566ZM19.665 9.8742H18.4653L18.4653 9.8766L19.665 9.8742ZM25.1201 15.3195L25.1177 16.5192H25.1201V15.3195ZM56.6585 15.3195V16.5192L56.6609 16.5192L56.6585 15.3195ZM62.1137 9.8742L63.3134 9.8766V9.8742H62.1137ZM64.5221 9.8742L65.7218 9.87586V9.8742H64.5221ZM56.6585 17.7236V18.9233L56.6602 18.9233L56.6585 17.7236ZM25.0723 17.7236L25.0707 18.9233H25.0723V17.7236ZM17.2088 9.8742V8.67452H16.0074L16.0091 9.87586L17.2088 9.8742ZM26.8842 115.528L26.8051 116.725L26.8448 116.728L26.8845 116.728L26.8842 115.528ZM54.936 115.522V114.323H54.9358L54.936 115.522ZM26.7933 115.522L26.8724 114.325L26.8329 114.323H26.7933V115.522ZM41.3406 84.2573L40.141 84.2569V84.2573H41.3406ZM44.9594 89.6604L45.4194 88.5525L45.4183 88.552L44.9594 89.6604ZM51.3416 88.3923L50.4956 87.5417L50.4941 87.5432L51.3416 88.3923ZM52.6121 82.0155L51.5032 82.4733L51.5043 82.4759L52.6121 82.0155ZM47.1992 78.4032V77.2036L47.1947 77.2036L47.1992 78.4032ZM41.3407 84.1731L40.1411 84.1549L40.141 84.1638L40.141 84.1727L41.3407 84.1731ZM47.1992 80.8134L45.9995 80.8139L48.3988 80.8134H47.1992ZM47.1992 80.8074V79.6077H45.9995V80.8074H47.1992ZM50.3963 82.953L51.507 82.4996L51.5063 82.4979L50.3963 82.953ZM49.6075 86.7214L48.7704 85.8621L48.7678 85.8646L49.6075 86.7214ZM45.8204 87.4125L46.2978 86.312L46.2978 86.3119L45.8204 87.4125ZM43.749 84.173L44.9483 84.2039L44.9487 84.1884V84.173H43.749ZM47.1991 80.7291L48.3988 80.7286L48.3983 79.5294H47.1991V80.7291ZM64.136 90.1113L62.9363 90.1119L65.3356 90.1113H64.136ZM64.136 90.1052L64.1329 88.9056L62.9363 88.9086V90.1052H64.136ZM69.5429 86.481L70.6518 86.9388L70.6524 86.9373L69.5429 86.481ZM68.2604 80.1102L69.1064 79.2596L69.1049 79.2581L68.2604 80.1102ZM61.8781 78.8541L62.3345 79.9636L62.3381 79.962L61.8781 78.8541ZM58.2594 84.2572H57.0597V84.2674L57.0599 84.2776L58.2594 84.2572ZM64.1359 90.0271L65.3356 90.0264L65.3349 88.8274H64.1359V90.0271ZM64.136 80.8134H62.9363L65.3356 80.814L64.136 80.8134ZM64.136 80.8074L64.1411 79.6077L62.9363 79.6025V80.8074H64.136ZM67.3151 82.947L66.2058 83.4039L66.2058 83.4039L67.3151 82.947ZM66.5564 86.6973L65.7115 85.8457L65.7115 85.8457L66.5564 86.6973ZM62.7993 87.4366L63.2593 86.3286H63.2593L62.7993 87.4366ZM60.6679 84.2572H61.8675V84.2456L61.8673 84.2339L60.6679 84.2572ZM61.6553 81.7629L60.8001 80.9216L60.8 80.9217L61.6553 81.7629ZM64.136 80.7292L65.3357 80.7299L65.3364 79.5372L64.1437 79.5295L64.136 80.7292ZM81.0604 90.1113H79.8608L82.2601 90.1118L81.0604 90.1113ZM81.0604 90.1052L81.0635 88.9056L79.8608 88.9025V90.1052H81.0604ZM85.2511 80.1524L84.3959 80.9937L84.3975 80.9953L85.2511 80.1524ZM78.8928 78.8241L78.4469 77.7104L78.4443 77.7114L78.8928 78.8241ZM75.214 84.1733L74.0145 84.1549L74.0143 84.1663L74.0143 84.1778L75.214 84.1733ZM81.0605 90.0273L82.2602 90.0278L82.2607 88.8343L81.0672 88.8276L81.0605 90.0273ZM81.0604 80.8134H79.8608L82.2601 80.8144L81.0604 80.8134ZM81.0604 80.8074V79.6077H79.8608V80.8074H81.0604ZM84.2516 82.935L85.3616 82.4798L85.359 82.4736L84.2516 82.935ZM79.7418 87.4366L80.2018 86.3286L80.1956 86.3261L79.7418 87.4366ZM77.6104 84.2572H78.8101V84.2417L78.8097 84.2262L77.6104 84.2572ZM78.5918 81.769L79.4471 82.6102L79.4509 82.6063L78.5918 81.769ZM81.0605 80.7292L82.2602 80.7302L82.2612 79.5295H81.0605V80.7292ZM97.9849 90.1113L96.7853 90.1118L99.1846 90.1113H97.9849ZM97.9849 90.1052V88.9056H96.7853V90.1052H97.9849ZM103.398 86.493L102.29 86.0326L102.29 86.0327L103.398 86.493ZM102.127 80.1162L102.976 79.2687L102.975 79.2672L102.127 80.1162ZM95.7391 78.848L95.2827 77.7386L95.2801 77.7396L95.7391 78.848ZM92.1204 84.2572H90.9207V84.2663L90.9208 84.2753L92.1204 84.2572ZM97.9849 90.0271L99.1846 90.0266L99.1841 88.8274H97.9849V90.0271ZM97.9849 80.8134H96.7853L99.1846 80.8161L97.9849 80.8134ZM97.9849 80.8074L98.0056 79.6079L96.7853 79.5869V80.8074H97.9849ZM101.146 82.9891L102.262 82.5491L102.26 82.5446L101.146 82.9891ZM100.327 86.7395L101.159 87.6039L101.159 87.6039L100.327 86.7395ZM96.546 87.4127L96.0623 88.5105L96.0666 88.5124L96.546 87.4127ZM94.4808 84.1731L95.6802 84.199L95.6805 84.186V84.1731H94.4808ZM97.9851 80.7291L99.1848 80.7318L99.1874 79.545L98.0007 79.5296L97.9851 80.7291ZM20.1468 129.166V130.365H61.584V129.166V127.966H20.1468V129.166ZM61.584 129.166L61.5855 130.365C72.2513 130.353 80.907 121.723 80.9136 111.069L79.7139 111.068L78.5142 111.068C78.5085 120.393 70.9309 127.955 61.5826 127.966L61.584 129.166ZM79.7139 111.068H80.9136V97.1909H79.7139H78.5142V111.068H79.7139ZM79.7139 97.1909V98.3906H100.059V97.1909V95.9912H79.7139V97.1909ZM100.059 97.1909L100.018 98.3899C103.876 98.5211 107.629 97.0844 110.415 94.4079L109.584 93.5427L108.753 92.6775C106.434 94.9054 103.31 96.1011 100.099 95.9919L100.059 97.1909ZM109.584 93.5427L110.417 94.4059C113.198 91.7221 114.77 88.027 114.77 84.1666H113.57H112.37C112.37 87.3744 111.064 90.4468 108.751 92.6795L109.584 93.5427ZM113.57 84.1666H114.77C114.77 80.3063 113.198 76.6112 110.417 73.9274L109.584 74.7906L108.751 75.6538C111.064 77.8865 112.37 80.9589 112.37 84.1666H113.57ZM109.584 74.7906L110.415 73.9254C107.629 71.2488 103.876 69.8122 100.018 69.9434L100.059 71.1424L100.099 72.3414C103.31 72.2322 106.434 73.4279 108.753 75.6558L109.584 74.7906ZM100.059 71.1424V69.9427H79.7139V71.1424V72.342H100.059V71.1424ZM79.7139 71.1424H80.9136V60.0234H79.7139H78.5142V71.1424H79.7139ZM79.7139 60.0234V61.2231H100.059V60.0234V58.8237H79.7139V60.0234ZM100.059 60.0234L100.018 61.2224C103.876 61.3536 107.629 59.9168 110.415 57.2404L109.584 56.3752L108.753 55.5099C106.434 57.7379 103.31 58.9336 100.099 58.8244L100.059 60.0234ZM109.584 56.3752L110.417 57.2383C113.198 54.5546 114.77 50.8595 114.77 46.9991H113.57H112.37C112.37 50.2068 111.064 53.2792 108.751 55.512L109.584 56.3752ZM113.57 46.9991H114.77C114.77 43.1387 113.198 39.4437 110.417 36.7599L109.584 37.6231L108.751 38.4862C111.064 40.719 112.37 43.7914 112.37 46.9991H113.57ZM109.584 37.6231L110.415 36.7579C107.629 34.0813 103.876 32.6447 100.018 32.7759L100.059 33.9748L100.099 35.1738C103.31 35.0647 106.434 36.2603 108.753 38.4882L109.584 37.6231ZM100.059 33.9748V32.7752H79.7139V33.9748V35.1745H100.059V33.9748ZM79.7139 33.9748H80.9136V20.0973H79.7139H78.5142V33.9748H79.7139ZM79.7139 20.0973L80.9136 20.0965C80.9072 9.4428 72.2517 0.813443 61.5855 0.800324L61.584 2L61.5826 3.19968C70.9313 3.21117 78.5086 10.7736 78.5142 20.098L79.7139 20.0973ZM61.584 2V0.800323H20.1468V2V3.19968H61.584V2ZM20.1468 2L20.1454 0.800324C9.47387 0.813136 0.818406 9.43578 0.800325 20.0952L2 20.0973L3.19968 20.0993C3.2155 10.7677 10.7937 3.21091 20.1482 3.19968L20.1468 2ZM2 20.0973H0.800323V111.068H2H3.19968V20.0973H2ZM2 111.068L0.800325 111.07C0.819588 121.729 9.47437 130.352 20.1453 130.365L20.1468 129.166L20.1483 127.966C10.7944 127.955 3.21654 120.397 3.19967 111.066L2 111.068ZM110.704 84.1734L109.504 84.1697C109.488 89.3669 105.263 93.5771 100.056 93.5878L100.058 94.7874L100.061 95.9871C106.583 95.9738 111.883 90.6999 111.903 84.1771L110.704 84.1734ZM100.058 94.7874V93.5878H45.1278V94.7874V95.9871H100.058V94.7874ZM45.1278 94.7874L45.1745 93.5887C40.1028 93.3913 36.0978 89.231 36.0978 84.1674H34.8981H33.6984C33.6984 90.5231 38.7249 95.7388 45.0812 95.9862L45.1278 94.7874ZM34.8981 84.1674H36.0978C36.0978 79.1038 40.1028 74.9435 45.1745 74.7462L45.1278 73.5474L45.0812 72.3486C38.7249 72.5959 33.6984 77.8117 33.6984 84.1674H34.8981ZM45.1278 73.5474V74.7471H100.058V73.5474V72.3477H45.1278V73.5474ZM100.058 73.5474L100.056 74.7471C105.268 74.7577 109.493 78.9787 109.504 84.1759L110.704 84.1734L111.903 84.171C111.89 77.6485 106.59 72.3611 100.061 72.3477L100.058 73.5474ZM110.704 46.994L109.504 46.9866C109.472 52.1673 105.252 56.3617 100.056 56.3724L100.058 57.5721L100.061 58.7717C106.569 58.7584 111.863 53.5048 111.903 47.0015L110.704 46.994ZM100.058 57.5721V56.3724H45.1278V57.5721V58.7717H100.058V57.5721ZM45.1278 57.5721L45.1745 56.3733C40.1028 56.1759 36.0978 52.0157 36.0978 46.952H34.8981H33.6984C33.6984 53.3078 38.7249 58.5235 45.0812 58.7708L45.1278 57.5721ZM34.8981 46.952H36.0978C36.0978 41.8884 40.1028 37.7281 45.1745 37.5308L45.1278 36.332L45.0812 35.1332C38.7249 35.3806 33.6984 40.5963 33.6984 46.952H34.8981ZM45.1278 36.332V37.5317H100.058V36.332V35.1323H45.1278V36.332ZM100.058 36.332L100.056 37.5317C102.563 37.537 104.968 38.5348 106.742 40.3112L107.591 39.4634L108.44 38.6156C106.216 36.3891 103.202 35.139 100.061 35.1323L100.058 36.332ZM107.591 39.4634L106.743 40.3125C108.515 42.0808 109.504 44.4848 109.504 46.994H110.704H111.903C111.903 43.8537 110.665 40.8369 108.438 38.6144L107.591 39.4634ZM4.40765 20.0976L5.60733 20.1001C5.62401 12.0971 12.1241 5.61622 20.1485 5.60485L20.1468 4.40517L20.1451 3.2055C10.8045 3.21874 3.22743 10.7646 3.20798 20.0951L4.40765 20.0976ZM20.1468 4.40517V5.60485H61.584V4.40517V3.20549H20.1468V4.40517ZM61.584 4.40517L61.5824 5.60485C69.6059 5.61596 76.0993 12.1023 76.105 20.0984L77.3047 20.0976L78.5044 20.0967C78.4977 10.7719 70.9269 3.21843 61.5857 3.2055L61.584 4.40517ZM77.3047 20.0976H76.105V33.9751H77.3047H78.5044V20.0976H77.3047ZM77.3047 33.9751V32.7755H45.1944V33.9751V35.1748H77.3047V33.9751ZM45.1944 33.9751L45.1524 32.7762C37.4819 33.0452 31.3986 39.3312 31.3986 46.9993H32.5983H33.798C33.798 40.6274 38.8538 35.3979 45.2365 35.1741L45.1944 33.9751ZM32.5983 46.9993H31.3986C31.3986 54.6673 37.4819 60.9534 45.1524 61.2223L45.1944 60.0234L45.2365 58.8244C38.8538 58.6007 33.798 53.3711 33.798 46.9993H32.5983ZM45.1944 60.0234V61.2231H77.3047V60.0234V58.8237H45.1944V60.0234ZM77.3047 60.0234H76.105V71.1484H77.3047H78.5044V60.0234H77.3047ZM77.3047 71.1484V69.9487H45.1944V71.1484V72.348H77.3047V71.1484ZM45.1944 71.1484H46.3941V71.1424H45.1944H43.9947V71.1484H45.1944ZM45.1944 71.1424L45.1524 69.9434C37.4819 70.2124 31.3986 76.4984 31.3986 84.1665H32.5983H33.798C33.798 77.7946 38.8538 72.5651 45.2365 72.3413L45.1944 71.1424ZM32.5983 84.1665H31.3986C31.3986 91.8345 37.4819 98.1206 45.1524 98.3895L45.1944 97.1906L45.2365 95.9916C38.8538 95.7679 33.798 90.5384 33.798 84.1665H32.5983ZM45.1944 97.1906V98.3903H77.3047V97.1906V95.9909H45.1944V97.1906ZM77.3047 97.1906H76.105V111.068H77.3047H78.5044V97.1906H77.3047ZM77.3047 111.068L76.105 111.067C76.0995 119.064 69.6057 125.55 61.5823 125.561L61.584 126.761L61.5857 127.96C70.9265 127.947 78.4979 120.394 78.5044 111.069L77.3047 111.068ZM61.584 126.761V125.561H20.1468V126.761V127.96H61.584V126.761ZM20.1468 126.761L20.1485 125.561C12.1243 125.55 5.62441 119.068 5.60733 111.066L4.40765 111.068L3.20798 111.071C3.22789 120.401 10.8046 127.947 20.1451 127.96L20.1468 126.761ZM4.40765 111.068H5.60733V20.0976H4.40765H3.20798V111.068H4.40765ZM17.2505 9.8742V11.0739H17.2566V9.8742V8.67452H17.2505V9.8742ZM17.2566 9.8742H18.4562C18.4562 9.87268 18.4563 9.87165 18.4564 9.87105C18.4564 9.87045 18.4565 9.87014 18.4565 9.87008C18.4565 9.87003 18.4564 9.87037 18.4562 9.8709C18.4558 9.8719 18.4554 9.8722 18.4556 9.87206C18.4557 9.87192 18.4556 9.87205 18.4552 9.87224C18.4549 9.87234 18.4549 9.87231 18.4554 9.87222C18.4558 9.87214 18.4574 9.87183 18.4608 9.87183V8.67215V7.47247C17.1319 7.47247 16.0569 8.54247 16.0569 9.8742H17.2566ZM18.4608 8.67215V9.87183C18.4618 9.87183 18.4624 9.87188 18.4627 9.87191C18.4631 9.87194 18.4632 9.87197 18.4632 9.87198C18.4632 9.87198 18.4632 9.87197 18.4631 9.87195C18.4631 9.87194 18.4631 9.87193 18.463 9.87192C18.463 9.87192 18.463 9.87191 18.463 9.87191C18.4631 9.87195 18.464 9.87241 18.4652 9.87352C18.4663 9.87461 18.4662 9.875 18.4658 9.87396C18.4655 9.87338 18.4653 9.87275 18.4652 9.87228C18.4651 9.87173 18.4653 9.87222 18.4653 9.8742H19.665H20.8647C20.8647 8.53858 19.7797 7.47247 18.4608 7.47247V8.67215ZM19.665 9.8742L18.4653 9.8766C18.4727 13.5444 21.4484 16.5119 25.1177 16.5192L25.1201 15.3195L25.1225 14.1199C22.7706 14.1152 20.8693 12.2142 20.8647 9.87179L19.665 9.8742ZM25.1201 15.3195V16.5192H56.6585V15.3195V14.1199H25.1201V15.3195ZM56.6585 15.3195L56.6609 16.5192C60.3301 16.5119 63.306 13.5446 63.3134 9.8766L62.1137 9.8742L60.914 9.8718C60.9093 12.2143 59.008 14.1152 56.6561 14.1199L56.6585 15.3195ZM62.1137 9.8742H63.3134C63.3134 9.87222 63.3135 9.87173 63.3134 9.87228C63.3133 9.87275 63.3131 9.87338 63.3129 9.87396C63.3124 9.875 63.3124 9.87461 63.3135 9.87352C63.3146 9.87241 63.3155 9.87195 63.3156 9.87191C63.3156 9.87191 63.3156 9.87192 63.3156 9.87192C63.3156 9.87193 63.3156 9.87194 63.3155 9.87195C63.3155 9.87197 63.3154 9.87198 63.3154 9.87198C63.3154 9.87197 63.3156 9.87194 63.3159 9.87191C63.3163 9.87188 63.3169 9.87183 63.3179 9.87183V8.67215V7.47247C61.9989 7.47247 60.914 8.53858 60.914 9.8742H62.1137ZM63.3179 8.67215V9.87183C63.3212 9.87183 63.3229 9.87214 63.3233 9.87222C63.3237 9.87231 63.3237 9.87234 63.3235 9.87224C63.323 9.87205 63.3229 9.87192 63.3231 9.87206C63.3232 9.8722 63.3229 9.8719 63.3224 9.8709C63.3222 9.87037 63.3221 9.87003 63.3222 9.87008C63.3222 9.87014 63.3222 9.87045 63.3223 9.87105C63.3223 9.87165 63.3224 9.87268 63.3224 9.8742H64.5221H65.7218C65.7218 8.54247 64.6467 7.47247 63.3179 7.47247V8.67215ZM64.5221 9.8742L63.3224 9.87253C63.3173 13.5426 60.3388 16.5189 56.6569 16.5239L56.6585 17.7236L56.6602 18.9233C61.6606 18.9164 65.7148 14.8725 65.7218 9.87586L64.5221 9.8742ZM56.6585 17.7236V16.5239H25.0723V17.7236V18.9233H56.6585V17.7236ZM25.0723 17.7236L25.074 16.5239C21.3921 16.5189 18.4135 13.5426 18.4084 9.87253L17.2088 9.8742L16.0091 9.87586C16.016 14.8725 20.0703 18.9164 25.0707 18.9233L25.0723 17.7236ZM17.2088 9.8742V11.0739H17.2505V9.8742V8.67452H17.2088V9.8742ZM26.8842 115.528L26.8845 116.728L54.9363 116.722L54.936 115.522L54.9358 114.323L26.884 114.329L26.8842 115.528ZM54.936 115.522V116.722C54.9373 116.722 54.9381 116.722 54.9386 116.722C54.9388 116.722 54.939 116.722 54.9391 116.722C54.9392 116.722 54.9392 116.722 54.9392 116.722C54.9392 116.722 54.9392 116.722 54.9391 116.722C54.9391 116.722 54.939 116.722 54.939 116.722C54.9388 116.722 54.9387 116.722 54.9385 116.722C54.938 116.722 54.9387 116.722 54.9398 116.723C54.9409 116.724 54.9411 116.725 54.9409 116.724C54.9408 116.724 54.9406 116.723 54.9405 116.723C54.9404 116.723 54.9406 116.723 54.9406 116.724H56.1402H57.3399C57.3399 115.402 56.2688 114.323 54.936 114.323V115.522ZM56.1402 116.724H54.9406C54.9406 116.726 54.9405 116.727 54.9404 116.727C54.9404 116.728 54.9403 116.728 54.9403 116.728C54.9403 116.728 54.9403 116.728 54.9406 116.728C54.941 116.727 54.9413 116.726 54.9412 116.726C54.9411 116.727 54.9411 116.726 54.9416 116.726C54.9418 116.726 54.9418 116.726 54.9414 116.726C54.941 116.726 54.9394 116.727 54.936 116.727V117.926V119.126C56.2649 119.126 57.3399 118.056 57.3399 116.724H56.1402ZM54.936 117.926V116.727H26.7933V117.926V119.126H54.936V117.926ZM26.7933 117.926V116.727C26.79 116.727 26.7883 116.726 26.7879 116.726C26.7875 116.726 26.7875 116.726 26.7877 116.726C26.7882 116.726 26.7882 116.727 26.7881 116.726C26.788 116.726 26.7883 116.727 26.7887 116.728C26.789 116.728 26.789 116.728 26.789 116.728C26.789 116.728 26.7889 116.728 26.7889 116.727C26.7888 116.727 26.7888 116.726 26.7888 116.724H25.5891H24.3894C24.3894 118.056 25.4644 119.126 26.7933 119.126V117.926ZM25.5891 116.724H26.7888C26.7888 116.723 26.7889 116.723 26.7888 116.723C26.7887 116.723 26.7885 116.724 26.7884 116.724C26.7882 116.725 26.7884 116.724 26.7896 116.723C26.7906 116.722 26.7913 116.722 26.7908 116.722C26.7907 116.722 26.7905 116.722 26.7904 116.722C26.7903 116.722 26.7902 116.722 26.7902 116.722C26.7901 116.722 26.7901 116.722 26.7901 116.722C26.7901 116.722 26.7901 116.722 26.7902 116.722C26.7903 116.722 26.7905 116.722 26.7907 116.722C26.7912 116.722 26.792 116.722 26.7933 116.722V115.522V114.323C25.4605 114.323 24.3894 115.402 24.3894 116.724H25.5891ZM26.7933 115.522L26.7142 116.719L26.8051 116.725L26.8842 115.528L26.9633 114.331L26.8724 114.325L26.7933 115.522ZM45.8202 45.7918V46.9914H99.3836V45.7918V44.5921H45.8202V45.7918ZM99.3836 45.7918V46.9914C99.3846 46.9914 99.3852 46.9915 99.3856 46.9915C99.3859 46.9915 99.386 46.9916 99.386 46.9916C99.3861 46.9916 99.386 46.9916 99.386 46.9916C99.3859 46.9915 99.3859 46.9915 99.3859 46.9915C99.3859 46.9915 99.3858 46.9915 99.3859 46.9915C99.3859 46.9916 99.3869 46.992 99.388 46.9931C99.3891 46.9942 99.389 46.9946 99.3886 46.9936C99.3884 46.993 99.3882 46.9924 99.3881 46.9919C99.388 46.9913 99.3881 46.9918 99.3881 46.9938H100.588H101.787C101.787 45.6582 100.703 44.5921 99.3836 44.5921V45.7918ZM100.588 46.9938H99.3881C99.3881 46.9943 99.3881 46.9938 99.3883 46.9928C99.3885 46.9918 99.3888 46.9911 99.3889 46.9907C99.3891 46.9902 99.3886 46.9916 99.3865 46.9937C99.3856 46.9946 99.3847 46.9954 99.3839 46.9959C99.3832 46.9964 99.3828 46.9966 99.3828 46.9965C99.3829 46.9965 99.3833 46.9963 99.3839 46.9962C99.3845 46.9961 99.3845 46.9962 99.3836 46.9962V48.1959V49.3955C100.706 49.3955 101.787 48.3195 101.787 46.9938H100.588ZM99.3836 48.1959V46.9962H45.8202V48.1959V49.3955H99.3836V48.1959ZM45.8202 48.1959V46.9962C45.8189 46.9962 45.8181 46.9961 45.8177 46.9961C45.8174 46.996 45.8173 46.996 45.8172 46.996C45.8171 46.996 45.817 46.996 45.817 46.996C45.817 46.996 45.8171 46.996 45.8171 46.996C45.8172 46.996 45.8172 46.996 45.8173 46.996C45.8174 46.9961 45.8176 46.9962 45.8177 46.9962C45.8182 46.9964 45.8176 46.9962 45.8165 46.9952C45.8154 46.994 45.8152 46.9933 45.8153 46.9938C45.8155 46.9941 45.8156 46.9946 45.8157 46.995C45.8158 46.9955 45.8157 46.9952 45.8157 46.9938H44.616H43.4163C43.4163 48.3156 44.4875 49.3955 45.8202 49.3955V48.1959ZM44.616 46.9938H45.8157C45.8157 46.9923 45.8158 46.9913 45.8158 46.9907C45.8159 46.9901 45.816 46.9897 45.816 46.9897C45.816 46.9896 45.8159 46.99 45.8157 46.9905C45.8153 46.9915 45.8149 46.9918 45.815 46.9917C45.8152 46.9915 45.8151 46.9917 45.8147 46.9918C45.8144 46.9919 45.8144 46.9919 45.8148 46.9918C45.8152 46.9917 45.8169 46.9914 45.8202 46.9914V45.7918V44.5921C44.4914 44.5921 43.4163 45.6621 43.4163 46.9938H44.616ZM41.3406 84.2573H40.141C40.141 87.1062 41.8618 89.6763 44.5004 90.7689L44.9594 89.6604L45.4183 88.552C43.6735 87.8296 42.5403 86.1325 42.5403 84.2573H41.3406ZM44.9594 89.6604L44.4993 90.7684C47.135 91.8628 50.1734 91.2535 52.1892 89.2413L51.3416 88.3923L50.4941 87.5432C49.1623 88.8727 47.1551 89.2732 45.4194 88.5525L44.9594 89.6604ZM51.3416 88.3923L52.1877 89.2429C54.2136 87.2278 54.8155 84.1911 53.7199 81.555L52.6121 82.0155L51.5043 82.4759C52.2271 84.215 51.8293 86.2152 50.4956 87.5417L51.3416 88.3923ZM52.6121 82.0155L53.721 81.5577C52.6315 78.9185 50.0545 77.2036 47.1992 77.2036V78.4032V79.6029C49.0883 79.6029 50.7864 80.7369 51.5032 82.4733L52.6121 82.0155ZM47.1992 78.4032L47.1947 77.2036C43.3423 77.218 40.1993 80.3053 40.1411 84.1549L41.3407 84.1731L42.5402 84.1912C42.5785 81.658 44.6497 79.6125 47.2037 79.6029L47.1992 78.4032ZM41.3407 84.1731L40.141 84.1727L40.141 84.2569L41.3406 84.2573L42.5403 84.2577L42.5403 84.1735L41.3407 84.1731ZM47.1992 80.8134H48.3988V80.8074H47.1992H45.9995V80.8134H47.1992ZM47.1992 80.8074V82.007C48.1134 82.007 48.9405 82.5646 49.2863 83.4081L50.3963 82.953L51.5063 82.4979C50.7926 80.757 49.0907 79.6077 47.1992 79.6077V80.8074ZM50.3963 82.953L49.2856 83.4063C49.63 84.2502 49.4274 85.222 48.7704 85.8621L49.6075 86.7214L50.4447 87.5806C51.7987 86.2614 52.2223 84.2522 51.507 82.4996L50.3963 82.953ZM49.6075 86.7214L48.7678 85.8646C48.1211 86.4984 47.144 86.679 46.2978 86.312L45.8204 87.4125L45.3429 88.5131C47.0737 89.2639 49.095 88.9036 50.4473 87.5781L49.6075 86.7214ZM45.8204 87.4125L46.2978 86.3119C45.4562 85.9469 44.9249 85.1132 44.9483 84.2039L43.749 84.173L42.5497 84.1421C42.501 86.0336 43.6075 87.7603 45.3429 88.5131L45.8204 87.4125ZM43.749 84.173H44.9487C44.9487 82.9369 45.9523 81.9288 47.1991 81.9288V80.7291V79.5294C44.6285 79.5294 42.5494 81.6105 42.5494 84.173H43.749ZM47.1991 80.7291L45.9994 80.7296L45.9995 80.8139L47.1992 80.8134L48.3988 80.8129L48.3988 80.7286L47.1991 80.7291ZM64.136 90.1113H65.3356V90.1052H64.136H62.9363V90.1113H64.136ZM64.136 90.1052L64.139 91.3049C66.9955 91.2977 69.5636 89.575 70.6518 86.9388L69.5429 86.481L68.434 86.0233C67.716 87.7626 66.0211 88.9008 64.1329 88.9056L64.136 90.1052ZM69.5429 86.481L70.6524 86.9373C71.7333 84.3087 71.1319 81.2741 69.1064 79.2596L68.2604 80.1102L67.4144 80.9608C68.7487 82.2879 69.1467 84.2898 68.4333 86.0248L69.5429 86.481ZM68.2604 80.1102L69.1049 79.2581C67.0829 77.2543 64.0521 76.6524 61.418 77.7461L61.8781 78.8541L62.3381 79.962C64.0752 79.2408 66.0782 79.6366 67.4159 80.9623L68.2604 80.1102ZM61.8781 78.8541L61.4217 77.7446C58.7797 78.8314 57.0597 81.4036 57.0597 84.2572H58.2594H59.459C59.459 82.375 60.5931 80.6798 62.3345 79.9635L61.8781 78.8541ZM58.2594 84.2572L57.0599 84.2776C57.1252 88.1302 60.2728 91.2267 64.1359 91.2267V90.0271V88.8274C61.5807 88.8274 59.502 86.7791 59.4589 84.2369L58.2594 84.2572ZM64.1359 90.0271L62.9362 90.0277L62.9363 90.1119L64.136 90.1113L65.3356 90.1106L65.3356 90.0264L64.1359 90.0271ZM64.136 80.8134H65.3356V80.8074H64.136H62.9363V80.8134H64.136ZM64.136 80.8074L64.1308 82.007C65.0418 82.0109 65.8598 82.5638 66.2058 83.4039L67.3151 82.947L68.4243 82.4901C67.7108 80.7578 66.024 79.6158 64.1411 79.6077L64.136 80.8074ZM67.3151 82.947L66.2058 83.4039C66.5502 84.2399 66.3545 85.2078 65.7115 85.8457L66.5564 86.6973L67.4014 87.549C68.7333 86.2276 69.1397 84.2264 68.4243 82.49L67.3151 82.947ZM66.5564 86.6973L65.7115 85.8457C65.0663 86.4858 64.0993 86.6774 63.2593 86.3286L62.7993 87.4366L62.3393 88.5446C64.0762 89.2657 66.0716 88.8683 67.4014 87.549L66.5564 86.6973ZM62.7993 87.4366L63.2593 86.3286C62.4149 85.9781 61.8675 85.1567 61.8675 84.2572H60.6679H59.4682C59.4682 86.1343 60.6066 87.8253 62.3393 88.5446L62.7993 87.4366ZM60.6679 84.2572L61.8673 84.2339C61.8554 83.621 62.0895 83.0323 62.5106 82.6042L61.6553 81.7629L60.8 80.9217C59.9206 81.8159 59.4442 83.0302 59.4684 84.2805L60.6679 84.2572ZM61.6553 81.7629L62.5105 82.6043C62.9413 82.1663 63.522 81.9249 64.1283 81.9288L64.136 80.7292L64.1437 79.5295C62.8834 79.5214 61.6818 80.0253 60.8001 80.9216L61.6553 81.7629ZM64.136 80.7292L62.9363 80.7285L62.9363 80.8127L64.136 80.8134L65.3356 80.814L65.3357 80.7299L64.136 80.7292ZM81.0604 90.1113H82.2601V90.1052H81.0604H79.8608V90.1113H81.0604ZM81.0604 90.1052L81.0574 91.3049C83.9058 91.3121 86.4817 89.6119 87.5852 86.9883L86.4794 86.5232L85.3735 86.0581C84.6468 87.7858 82.9478 88.9104 81.0635 88.9056L81.0604 90.1052ZM86.4794 86.5232L87.5852 86.9883C88.6881 84.3663 88.1076 81.3376 86.1047 79.3094L85.2511 80.1524L84.3975 80.9953C85.7182 82.3327 86.1009 84.3287 85.3735 86.0581L86.4794 86.5232ZM85.2511 80.1524L86.1062 79.311C84.1105 77.2825 81.0865 76.6535 78.4469 77.7104L78.8928 78.8241L79.3387 79.9378C81.0826 79.2397 83.0801 79.6563 84.3959 80.9937L85.2511 80.1524ZM78.8928 78.8241L78.4443 77.7114C75.8067 78.7747 74.0579 81.3142 74.0145 84.1549L75.214 84.1733L76.4135 84.1916C76.4422 82.3201 77.5955 80.6405 79.3414 79.9368L78.8928 78.8241ZM75.214 84.1733L74.0143 84.1778C74.0288 88.0576 77.1683 91.2052 81.0538 91.2269L81.0605 90.0273L81.0672 88.8276C78.4979 88.8133 76.4232 86.7321 76.4137 84.1688L75.214 84.1733ZM81.0605 90.0273L79.8608 90.0268L79.8608 90.1107L81.0604 90.1113L82.2601 90.1118L82.2602 90.0278L81.0605 90.0273ZM81.0604 80.8134H82.2601V80.8074H81.0604H79.8608V80.8134H81.0604ZM81.0604 80.8074V82.007C81.9723 82.007 82.7944 82.5566 83.1442 83.3963L84.2516 82.935L85.359 82.4736C84.6373 80.741 82.9424 79.6077 81.0604 79.6077V80.8074ZM84.2516 82.935L83.1416 83.3901C83.4886 84.2363 83.2948 85.2001 82.6514 85.8423L83.499 86.6914L84.3465 87.5404C85.678 86.2114 86.0743 84.218 85.3616 82.4798L84.2516 82.935ZM83.499 86.6914L82.6514 85.8423C82.0068 86.4858 81.0413 86.6772 80.2018 86.3286L79.7418 87.4366L79.2818 88.5446C81.0192 89.2659 83.0163 88.8682 84.3465 87.5404L83.499 86.6914ZM79.7418 87.4366L80.1956 86.3261C79.3552 85.9827 78.8101 85.1675 78.8101 84.2572H77.6104H76.4107C76.4107 86.1356 77.5394 87.8327 79.2881 88.5472L79.7418 87.4366ZM77.6104 84.2572L78.8097 84.2262C78.794 83.621 79.0244 83.04 79.4471 82.6102L78.5918 81.769L77.7365 80.9277C76.8587 81.8202 76.3786 83.0303 76.4111 84.2882L77.6104 84.2572ZM78.5918 81.769L79.4509 82.6063C79.874 82.1723 80.4547 81.9289 81.0605 81.9289V80.7292V79.5295C79.8117 79.5295 78.6102 80.0314 77.7327 80.9316L78.5918 81.769ZM81.0605 80.7292L79.8608 80.7282L79.8608 80.8124L81.0604 80.8134L82.2601 80.8144L82.2602 80.7302L81.0605 80.7292ZM97.9849 90.1113H99.1846V90.1052H97.9849H96.7853V90.1113H97.9849ZM97.9849 90.1052V91.3049C100.836 91.3049 103.41 89.5891 104.506 86.9534L103.398 86.493L102.29 86.0327C101.567 87.7725 99.8669 88.9056 97.9849 88.9056V90.1052ZM103.398 86.493L104.506 86.9534C105.602 84.3141 104.991 81.2864 102.976 79.2687L102.127 80.1162L101.278 80.9638C102.612 82.2996 103.012 84.2964 102.29 86.0326L103.398 86.493ZM102.127 80.1162L102.975 79.2672C100.957 77.2528 97.9192 76.6539 95.2827 77.7386L95.7391 78.848L96.1955 79.9575C97.9421 79.239 99.9503 79.6381 101.28 80.9653L102.127 80.1162ZM95.7391 78.848L95.2801 77.7396C92.6409 78.8325 90.9207 81.4031 90.9207 84.2572H92.1204H93.3201C93.3201 82.3755 94.4539 80.6787 96.1981 79.9565L95.7391 78.848ZM92.1204 84.2572L90.9208 84.2753C90.9789 88.1285 94.1206 91.2267 97.9849 91.2267V90.0271V88.8274C95.4309 88.8274 93.3582 86.7807 93.3199 84.2392L92.1204 84.2572ZM97.9849 90.0271L96.7852 90.0276L96.7853 90.1118L97.9849 90.1113L99.1846 90.1107L99.1846 90.0266L97.9849 90.0271ZM97.9849 80.8134H99.1846V80.8074H97.9849H96.7853V80.8134H97.9849ZM97.9849 80.8074L97.9643 82.0069C98.8782 82.0226 99.6931 82.5848 100.032 83.4336L101.146 82.9891L102.26 82.5446C101.563 80.797 99.8854 79.6402 98.0056 79.6079L97.9849 80.8074ZM101.146 82.9891L100.03 83.4291C100.364 84.2755 100.156 85.2389 99.4952 85.8752L100.327 86.7395L101.159 87.6039C102.521 86.2929 102.952 84.2992 102.262 82.5491L101.146 82.9891ZM100.327 86.7395L99.4953 85.8751C98.8414 86.5043 97.8662 86.6794 97.0253 86.3129L96.546 87.4127L96.0666 88.5124C97.7906 89.2638 99.8019 88.91 101.159 87.6039L100.327 86.7395ZM96.546 87.4127L97.0296 86.3148C96.19 85.9449 95.6605 85.1137 95.6802 84.199L94.4808 84.1731L93.2814 84.1472C93.2407 86.0334 94.3369 87.7504 96.0623 88.5105L96.546 87.4127ZM94.4808 84.1731H95.6805C95.6805 83.5786 95.9223 83.0008 96.3541 82.5738L95.5104 81.7208L94.6668 80.8679C93.7859 81.7391 93.2811 82.9285 93.2811 84.1731H94.4808ZM95.5104 81.7208L96.3541 82.5738C96.7783 82.1542 97.3583 81.9208 97.9696 81.9287L97.9851 80.7291L98.0007 79.5296C96.7573 79.5135 95.5552 79.9892 94.6668 80.8679L95.5104 81.7208ZM97.9851 80.7291L96.7854 80.7265L96.7853 80.8107L97.9849 80.8134L99.1846 80.8161L99.1848 80.7318L97.9851 80.7291Z" fill="white" mask="url(#path-1-outside-1_1945_674)"/>
  </svg>