<svg xmlns="http://www.w3.org/2000/svg" width="80" height="104" viewBox="0 0 80 104" fill="none">
    <path d="M20.5111 36.3761L24.104 37.2646L23.2155 40.8575L19.6226 39.969L20.5111 36.3761Z" fill="#1560BD" stroke="#1560BD" stroke-width="0.3"/>
    <path d="M27.2627 38.0623L66.9365 47.8748L67.083 47.911L67.0459 48.0565L66.2129 51.3563L66.1758 51.5008L66.0312 51.4647L26.374 41.6522L26.2285 41.6161L26.2646 41.4706L27.0811 38.1717L27.1172 38.0262L27.2627 38.0623Z" fill="#1560BD" stroke="#1560BD" stroke-width="0.3"/>
    <path d="M19.0146 43.0281L65.2871 54.4724L65.4326 54.5085L65.3965 54.6541L64.5801 57.9539L64.5439 58.0994L64.3984 58.0632L18.126 46.6179L17.9805 46.5828L18.0166 46.4363L18.833 43.1375L18.8691 42.9919L19.0146 43.0281Z" fill="#1560BD" stroke="#1560BD" stroke-width="0.3"/>
    <path d="M15.7334 56.2077L55.4072 66.0202L55.5537 66.0563L55.5166 66.2018L54.6836 69.5016L54.6465 69.6461L54.502 69.61L14.8447 59.7975L14.6992 59.7614L14.7354 59.6159L15.5518 56.317L15.5879 56.1715L15.7334 56.2077Z" fill="#1560BD" stroke="#1560BD" stroke-width="0.3"/>
    <path d="M58.7041 66.8362L62.0039 67.6692L62.1484 67.7063L62.1123 67.8508L61.2959 71.1331L61.2598 71.2786L61.1143 71.2424L57.8154 70.426L57.6699 70.3899L57.7061 70.2444L58.5225 66.9456L58.5586 66.7991L58.7041 66.8362Z" fill="#1560BD" stroke="#1560BD" stroke-width="0.3"/>
    <path d="M17.3809 49.6094L63.6533 61.0714L63.7988 61.1075L63.7627 61.253L62.9463 64.5518L62.9111 64.6973L62.7646 64.6612L16.4756 53.1993L16.3291 53.1631L16.3662 53.0176L17.1992 49.7178L17.2363 49.5733L17.3809 49.6094Z" fill="#1560BD" stroke="#1560BD" stroke-width="0.3"/>
    <path d="M33.8604 32.7057L57.0049 38.4196L57.1504 38.4557L57.1143 38.6013L56.2979 41.9001L56.2617 42.0456L56.1162 42.0095L32.9717 36.279L32.8262 36.2429L32.8623 36.0974L33.6787 32.8151L33.7148 32.6696L33.8604 32.7057Z" fill="#1560BD" stroke="#1560BD" stroke-width="0.3"/>
    <path d="M40.9834 1.12128C44.1754 1.12128 46.8919 3.29059 47.6963 6.22382H56.3057C57.3238 6.22382 58.1562 7.05625 58.1562 8.0744V9.71405L64.7969 9.1994H64.7979L64.9873 9.1955C65.9234 9.22172 66.7251 9.94598 66.7949 10.9025L67.3477 17.9172L78.1582 20.4103H78.1572C78.482 20.4761 78.7857 20.6414 79.0283 20.8791V20.7385L79.3047 21.173C79.5314 21.5293 79.6314 21.9566 79.5781 22.381L79.5459 22.5627L70.7246 60.6476L73.4785 95.5051V95.506L73.4824 95.6926C73.4726 96.0627 73.3525 96.4155 73.1455 96.7121L73.0352 96.8557C72.76 97.1793 72.3716 97.4037 71.9551 97.4797L71.7754 97.5031L62.0049 98.2599L61.1631 101.861C60.9615 102.722 60.1393 103.422 59.2646 103.422C59.1492 103.422 59.0194 103.403 58.917 103.386L58.9082 103.384L58.3135 103.248L43.1162 99.7492L14.0586 102.044L14.0469 102.045V102.044H13.9111C13.0098 102.044 12.2369 101.394 12.083 100.519L12.0605 100.341L11.4395 92.4406L2.5 90.3742H2.49902C1.50132 90.134 0.890682 89.1536 1.1123 88.1555V88.1535L8.55469 56.0334L5.36035 15.6701V15.6691C5.28655 14.6527 6.04422 13.7644 7.0625 13.6896L18.585 12.7785L19.5127 8.75409L19.5625 8.57733C19.6996 8.17277 19.9738 7.83212 20.3457 7.60565L20.3506 7.60272C20.7704 7.36556 21.2675 7.27266 21.75 7.38397H21.751L23.8203 7.8703C23.9147 6.93936 24.7087 6.22382 25.6621 6.22382H34.2715C35.0914 3.27481 37.7909 1.12149 40.9834 1.12128ZM5.14551 87.258L57.9404 99.4338L75.5117 23.5764L57.667 19.4631C57.3251 19.8432 56.8521 20.1105 56.2891 20.1105H25.6445C24.6265 20.1104 23.7939 19.278 23.7939 18.2599V11.6623L22.7129 11.4162L5.14551 87.258ZM15.6133 98.2629L31.1377 97.0422L15.2324 93.3791L15.6133 98.2629ZM62.875 94.5519L69.6279 94.0187L67.9492 72.6896L62.875 94.5519ZM9.19141 17.2746L11.3135 44.132L17.6973 16.6057L9.19141 17.2746ZM58.1396 13.4328V15.7941L63.5371 17.0305L63.2246 13.0305L58.1396 13.4328ZM40.9668 4.84003C39.1791 4.84007 37.7158 6.30325 37.7158 8.091C37.7158 9.10911 36.8833 9.94156 35.8652 9.94159H27.4951V16.4269H54.4385V9.94159H46.0684C45.0503 9.94147 44.2178 9.10906 44.2178 8.091C44.2178 6.30322 42.7546 4.84003 40.9668 4.84003Z" fill="#1560BD" stroke="#1560BD" stroke-width="0.3"/>
  </svg>